<svg width="41" height="40" viewBox="0 0 41 40" fill="none" xmlns="http://www.w3.org/2000/svg">
<circle cx="20" cy="20" r="20" fill="#087197"/>
<g filter="url(#filter0_d_131_7)">
<path d="M10.6126 30.324C9.46065 30.324 8.30865 30.117 7.15665 29.703C6.02265 29.271 5.00565 28.632 4.10565 27.786L6.37365 25.059C7.00365 25.599 7.69665 26.04 8.45265 26.382C9.22665 26.724 9.98265 26.895 10.7206 26.895C11.5486 26.895 12.1606 26.742 12.5566 26.436C12.9706 26.13 13.1776 25.716 13.1776 25.194C13.1776 24.924 13.1146 24.69 12.9886 24.492C12.8806 24.294 12.7096 24.123 12.4756 23.979C12.2596 23.817 11.9896 23.673 11.6656 23.547C11.3596 23.403 11.0176 23.25 10.6396 23.088L8.34465 22.116C7.89465 21.936 7.45365 21.702 7.02165 21.414C6.60765 21.126 6.22965 20.793 5.88765 20.415C5.56365 20.019 5.30265 19.569 5.10465 19.065C4.90665 18.543 4.80765 17.958 4.80765 17.31C4.80765 16.59 4.96065 15.915 5.26665 15.285C5.57265 14.637 6.00465 14.079 6.56265 13.611C7.12065 13.125 7.77765 12.747 8.53365 12.477C9.30765 12.207 10.1536 12.072 11.0716 12.072C12.0976 12.072 13.1056 12.27 14.0956 12.666C15.1036 13.062 15.9856 13.638 16.7416 14.394L14.7166 16.905C14.1406 16.455 13.5646 16.113 12.9886 15.879C12.4126 15.627 11.7736 15.501 11.0716 15.501C10.3876 15.501 9.83865 15.645 9.42465 15.933C9.02865 16.203 8.83065 16.59 8.83065 17.094C8.83065 17.364 8.89365 17.598 9.01965 17.796C9.16365 17.976 9.35265 18.147 9.58665 18.309C9.83865 18.453 10.1266 18.597 10.4506 18.741C10.7746 18.867 11.1256 19.011 11.5036 19.173L13.7716 20.091C14.8516 20.523 15.6976 21.117 16.3096 21.873C16.9396 22.629 17.2546 23.628 17.2546 24.87C17.2546 25.608 17.1016 26.31 16.7956 26.976C16.5076 27.624 16.0756 28.2 15.4996 28.704C14.9416 29.19 14.2486 29.586 13.4206 29.892C12.5926 30.18 11.6566 30.324 10.6126 30.324ZM29.4766 30.324C28.2706 30.324 27.1366 30.135 26.0746 29.757C25.0306 29.361 24.1216 28.785 23.3476 28.029C22.5736 27.273 21.9616 26.337 21.5116 25.221C21.0796 24.087 20.8636 22.782 20.8636 21.306C20.8636 19.848 21.0886 18.552 21.5386 17.418C21.9886 16.266 22.6006 15.294 23.3746 14.502C24.1666 13.71 25.0846 13.107 26.1286 12.693C27.1726 12.279 28.2796 12.072 29.4496 12.072C30.7276 12.072 31.8256 12.306 32.7436 12.774C33.6616 13.242 34.4086 13.773 34.9846 14.367L32.9056 16.905C32.4556 16.509 31.9786 16.176 31.4746 15.906C30.9706 15.636 30.3406 15.501 29.5846 15.501C28.9006 15.501 28.2706 15.636 27.6946 15.906C27.1366 16.158 26.6506 16.527 26.2366 17.013C25.8226 17.499 25.4986 18.093 25.2646 18.795C25.0486 19.497 24.9406 20.289 24.9406 21.171C24.9406 22.989 25.3456 24.402 26.1556 25.41C26.9836 26.4 28.2256 26.895 29.8816 26.895C30.2416 26.895 30.5926 26.85 30.9346 26.76C31.2766 26.67 31.5556 26.535 31.7716 26.355V23.331H28.8556V20.091H35.2816V28.191C34.6696 28.785 33.8596 29.289 32.8516 29.703C31.8436 30.117 30.7186 30.324 29.4766 30.324Z" fill="white"/>
</g>
<defs>
<filter id="filter0_d_131_7" x="1.10559" y="10.072" width="39.176" height="26.252" filterUnits="userSpaceOnUse" color-interpolation-filters="sRGB">
<feFlood flood-opacity="0" result="BackgroundImageFix"/>
<feColorMatrix in="SourceAlpha" type="matrix" values="0 0 0 0 0 0 0 0 0 0 0 0 0 0 0 0 0 0 127 0" result="hardAlpha"/>
<feOffset dx="1" dy="2"/>
<feGaussianBlur stdDeviation="2"/>
<feComposite in2="hardAlpha" operator="out"/>
<feColorMatrix type="matrix" values="0 0 0 0 0.12549 0 0 0 0 0.87451 0 0 0 0 0.498039 0 0 0 1 0"/>
<feBlend mode="normal" in2="BackgroundImageFix" result="effect1_dropShadow_131_7"/>
<feBlend mode="normal" in="SourceGraphic" in2="effect1_dropShadow_131_7" result="shape"/>
</filter>
</defs>
</svg>
