<svg width="501" height="500" viewBox="0 0 501 500" fill="none" xmlns="http://www.w3.org/2000/svg">
<path d="M250.964 500C389.035 500 500.964 493.909 500.964 486.396C500.964 478.883 389.035 472.792 250.964 472.792C112.893 472.792 0.963867 478.883 0.963867 486.396C0.963867 493.909 112.893 500 250.964 500Z" fill="#002D3D" fill-opacity="0.75"/>
<path opacity="0.25" d="M105.352 101.813L92.1706 25.8048C92.0987 25.3556 92.1093 24.8929 92.2015 24.4492C92.2937 24.0055 92.4653 23.5918 92.7042 23.2372C92.9431 22.8826 93.2434 22.5958 93.584 22.3971C93.9246 22.1983 94.2971 22.0925 94.6752 22.0872H201.312C201.898 22.0918 202.464 22.3371 202.919 22.7827C203.374 23.2283 203.691 23.8478 203.817 24.5395L216.998 100.485C217.072 100.936 217.063 101.4 216.972 101.846C216.881 102.291 216.709 102.707 216.47 103.064C216.231 103.42 215.93 103.708 215.588 103.908C215.247 104.108 214.873 104.214 214.493 104.219H107.856C107.276 104.216 106.714 103.978 106.259 103.541C105.805 103.105 105.485 102.496 105.352 101.813Z" fill="#263238"/>
<path d="M469.479 224.026H30.8604V243.067H469.479V224.026Z" fill="#263238"/>
<path opacity="0.3" d="M148.251 224.026H30.8604V243.067H148.251V224.026Z" fill="white"/>
<path d="M150.123 243.067H139.911L145.256 481.714H150.123H154.99L160.348 243.067H150.123Z" fill="#263238"/>
<path opacity="0.3" d="M145.257 481.714H150.124V248.191L140.08 250.409L145.257 481.714Z" fill="white"/>
<path d="M53.3364 243.067H43.1245L48.4693 481.714H53.3364H58.2034L63.5482 243.067H53.3364Z" fill="#263238"/>
<path opacity="0.3" d="M48.4696 481.714H53.3367V248.191L43.2798 250.409L48.4696 481.714Z" fill="white"/>
<path d="M447.003 243.067H436.791L442.136 481.714H447.003H451.87L457.228 243.067H447.003Z" fill="#263238"/>
<path opacity="0.3" d="M442.136 481.714H447.003V248.191L436.959 250.409L442.136 481.714Z" fill="white"/>
<path d="M350.216 243.067H340.004L345.349 481.714H350.216H355.083L360.428 243.067H350.216Z" fill="#263238"/>
<path opacity="0.3" d="M345.349 481.714H350.216V248.191L340.172 250.409L345.349 481.714Z" fill="white"/>
<path d="M239.061 122.088H134.773C133.927 122.048 133.085 122.25 132.315 122.678C131.546 123.107 130.871 123.75 130.346 124.554C129.821 125.358 129.461 126.301 129.295 127.306C129.129 128.311 129.161 129.349 129.39 130.336L143.281 210.546C143.728 212.815 144.774 214.845 146.26 216.331C147.746 217.816 149.592 218.675 151.518 218.778H255.883C256.727 218.818 257.568 218.615 258.336 218.188C259.104 217.76 259.778 217.119 260.303 216.317C260.828 215.515 261.188 214.574 261.356 213.571C261.523 212.568 261.492 211.532 261.266 210.546L247.362 130.336C246.914 128.052 245.86 126.008 244.361 124.519C242.861 123.029 241 122.175 239.061 122.088V122.088Z" fill="#263238"/>
<path d="M152.422 214.201C151.121 214.095 149.881 213.494 148.879 212.484C147.878 211.474 147.165 210.107 146.844 208.578L132.953 128.368C132.834 127.837 132.816 127.281 132.898 126.74C132.981 126.199 133.163 125.688 133.431 125.244C133.709 124.863 134.054 124.563 134.44 124.366C134.827 124.169 135.245 124.079 135.664 124.103H240.029C241.33 124.21 242.57 124.811 243.572 125.821C244.573 126.83 245.285 128.198 245.606 129.727L259.498 209.937C259.616 210.468 259.635 211.024 259.553 211.565C259.47 212.105 259.288 212.617 259.02 213.061C258.744 213.444 258.399 213.746 258.012 213.943C257.625 214.141 257.206 214.229 256.786 214.201H152.422Z" fill="white"/>
<path opacity="0.4" d="M231.16 207.781L217.992 131.726C217.918 131.276 217.927 130.811 218.018 130.366C218.109 129.92 218.281 129.504 218.52 129.148C218.759 128.791 219.06 128.503 219.402 128.303C219.743 128.104 220.117 127.998 220.497 127.993H237.434C238.022 127.998 238.59 128.246 239.045 128.694C239.5 129.143 239.816 129.766 239.939 130.461L253.107 206.453C253.181 206.904 253.172 207.368 253.081 207.814C252.99 208.259 252.819 208.675 252.58 209.032C252.34 209.388 252.039 209.676 251.698 209.876C251.356 210.076 250.982 210.182 250.603 210.187H233.665C233.085 210.184 232.522 209.946 232.068 209.509C231.613 209.073 231.294 208.464 231.16 207.781V207.781Z" fill="#263238"/>
<path d="M141.641 134.647L141.073 131.351H161.988L162.556 134.647H141.641Z" fill="#263238"/>
<path d="M151.298 142.832L150.73 139.536H187.382L187.963 142.832H151.298Z" fill="#EBEBEB"/>
<path d="M153.235 151.001L152.654 147.705H193.746L194.315 151.001H153.235Z" fill="#EBEBEB"/>
<path d="M155.158 159.186L154.59 155.891H187.665L188.246 159.186H155.158Z" fill="#EBEBEB"/>
<path d="M148.006 172.448L147.425 169.152H160.658L161.226 172.448H148.006Z" fill="#263238"/>
<path d="M157.65 180.617L157.082 177.322H173.194L173.775 180.617H157.65Z" fill="#EBEBEB"/>
<path d="M177.635 180.617L177.054 177.322H193.178L193.746 180.617H177.635Z" fill="#EBEBEB"/>
<path d="M159.587 188.802L159.019 185.507H213.499L214.067 188.802H159.587Z" fill="#EBEBEB"/>
<path d="M161.51 196.972L160.942 193.676H202.487L203.055 196.972H161.51Z" fill="#EBEBEB"/>
<path d="M287.783 218.294H150.472C146.728 218.294 144.301 220.871 145.088 224.026H296.02C295.245 220.871 291.527 218.294 287.783 218.294Z" fill="#263238"/>
<path d="M143.255 24.5864H120.869L120.366 21.6654H142.752L143.255 24.5864Z" fill="#76D5F7"/>
<path opacity="0.4" d="M139.615 29.2413H130.629L130.126 26.3203H139.111L139.615 29.2413Z" fill="#76D5F7"/>
<path opacity="0.4" d="M154.564 29.2413H140.725L140.221 26.3203H154.061L154.564 29.2413Z" fill="#76D5F7"/>
<path opacity="0.4" d="M160.594 33.8805H131.43L130.926 30.9595H160.103L160.594 33.8805Z" fill="#76D5F7"/>
<path opacity="0.4" d="M156.888 38.5352H132.23L131.727 35.6143H156.385L156.888 38.5352Z" fill="#76D5F7"/>
<path opacity="0.4" d="M173.245 87.911H157.547L158.05 90.8164H173.749L173.245 87.911Z" fill="#224957"/>
<path d="M153.674 81.5378H130.681L130.178 78.6168H153.17L153.674 81.5378Z" fill="#76D5F7"/>
<path opacity="0.4" d="M162.917 92.5503H141.538L142.042 95.4713H163.421L162.917 92.5503Z" fill="#76D5F7"/>
<path opacity="0.4" d="M156.437 87.911H140.738L141.242 90.8164H156.94L156.437 87.911Z" fill="#76D5F7"/>
<path opacity="0.4" d="M171.335 83.2561H139.938L140.441 86.1771H171.838L171.335 83.2561Z" fill="#76D5F7"/>
<path d="M142.468 2.90538H117.138L116.635 0H141.964L142.468 2.90538Z" fill="#76D5F7"/>
<path opacity="0.4" d="M154.977 13.9332H127.04L127.544 16.8542H155.468L154.977 13.9332Z" fill="#76D5F7"/>
<path opacity="0.4" d="M149.387 9.29407H126.24L126.743 12.1994H149.891L149.387 9.29407Z" fill="#76D5F7"/>
<path opacity="0.4" d="M150.923 4.63916H125.439L125.942 7.56018H151.427L150.923 4.63916Z" fill="#76D5F7"/>
<path d="M142.184 46.0954H124.574L124.071 43.1744H141.68L142.184 46.0954Z" fill="#76D5F7"/>
<path opacity="0.4" d="M169.837 57.1078H135.432L135.935 60.0288H170.328L169.837 57.1078Z" fill="#76D5F7"/>
<path opacity="0.4" d="M148.884 52.4685H134.631L135.135 55.3895H149.388L148.884 52.4685Z" fill="#76D5F7"/>
<path opacity="0.4" d="M164.35 52.4685H150.098L150.601 55.3895H164.854L164.35 52.4685Z" fill="#76D5F7"/>
<path opacity="0.4" d="M165.228 47.8137H133.831L134.334 50.7347H165.718L165.228 47.8137Z" fill="#76D5F7"/>
<path opacity="0.4" d="M165.164 71.0566H137.833L138.336 73.962H165.667L165.164 71.0566Z" fill="#76D5F7"/>
<path opacity="0.4" d="M144.985 66.4017H137.033L137.536 69.3227H145.476L144.985 66.4017Z" fill="#76D5F7"/>
<path opacity="0.4" d="M157.417 66.4017H146.069L146.573 69.3227H157.921L157.417 66.4017Z" fill="#76D5F7"/>
<path opacity="0.4" d="M167.629 61.7627H136.232L136.735 64.6681H168.133L167.629 61.7627Z" fill="#76D5F7"/>
<path opacity="0.4" d="M192.352 60.9817H181.107L180.604 58.0607H191.862L192.352 60.9817Z" fill="#76D5F7"/>
<path opacity="0.4" d="M211.072 60.9817H193.746L193.243 58.0607H210.568L211.072 60.9817Z" fill="#76D5F7"/>
<path opacity="0.4" d="M218.43 65.6366H181.908L181.404 62.7156H217.927L218.43 65.6366Z" fill="#76D5F7"/>
<path opacity="0.4" d="M213.577 70.2757H182.709L182.205 67.3547H213.073L213.577 70.2757Z" fill="#76D5F7"/>
<path opacity="0.4" d="M227.403 42.5028H192.43L192.933 45.4082H227.907L227.403 42.5028Z" fill="#76D5F7"/>
<path opacity="0.4" d="M220.612 37.8479H191.629L192.132 40.7689H221.103L220.612 37.8479Z" fill="#76D5F7"/>
<path d="M215.371 33.2087H183.458L183.961 36.1141H215.875L215.371 33.2087Z" fill="#76D5F7"/>
<path opacity="0.4" d="M228.978 88.8639H185.91L186.413 91.7849H229.481L228.978 88.8639Z" fill="#76D5F7"/>
<path opacity="0.4" d="M202.951 84.2246H185.109L185.613 87.13H203.455L202.951 84.2246Z" fill="#76D5F7"/>
<path opacity="0.4" d="M222.316 84.2246H204.475L204.978 87.13H222.82L222.316 84.2246Z" fill="#76D5F7"/>
<path opacity="0.4" d="M223.608 79.5697H184.31L184.813 82.4907H224.111L223.608 79.5697Z" fill="#76D5F7"/>
<path opacity="0.4" d="M222.523 102.797H188.312L188.815 105.718H223.027L222.523 102.797Z" fill="#76D5F7"/>
<path opacity="0.4" d="M197.465 98.158H187.511L188.015 101.079H197.968L197.465 98.158Z" fill="#76D5F7"/>
<path opacity="0.4" d="M213.034 98.158H198.833L199.336 101.079H213.538L213.034 98.158Z" fill="#76D5F7"/>
<path opacity="0.4" d="M226.022 93.5031H186.71L187.214 96.424H226.512L226.022 93.5031Z" fill="#76D5F7"/>
<path opacity="0.4" d="M121.347 106.405H94.5713L95.0748 109.326H121.85L121.347 106.405Z" fill="#76D5F7"/>
<path opacity="0.4" d="M113.433 101.766H93.771L94.2745 104.671H113.924L113.433 101.766Z" fill="#76D5F7"/>
<path opacity="0.4" d="M134.464 101.766H114.814L115.318 104.671H134.98L134.464 101.766Z" fill="#224957"/>
<path opacity="0.4" d="M132.282 97.1115H92.9707L93.4742 100.032H132.772L132.282 97.1115Z" fill="#76D5F7"/>
<path d="M432.932 193.676H416.355L418.291 224.026H430.995L432.932 193.676Z" fill="#263238"/>
<path opacity="0.4" d="M432.932 193.676H416.355L418.291 224.026H430.995L432.932 193.676Z" fill="white"/>
<path d="M71.6822 172.604H95.5141L87.3808 224.026H63.5488L71.6822 172.604Z" fill="#263238"/>
<path d="M102.033 158.827H68.377L77.8013 224.026H111.458L102.033 158.827Z" fill="#263238"/>
<path d="M66.3892 158.827H68.3773L77.8017 224.026H75.8135L66.3892 158.827Z" fill="#263238"/>
<path opacity="0.3" d="M66.3892 158.827H68.3773L77.8017 224.026H75.8135L66.3892 158.827Z" fill="black"/>
<path d="M82.6428 217.044L75.2324 165.794H97.2053L104.603 217.044H82.6428Z" fill="white"/>
<path opacity="0.6" d="M103.557 217.044L96.1592 165.794H97.2049L104.602 217.044H103.557Z" fill="#263238"/>
<path d="M268.741 75.4929C269.218 76.7425 269.064 78.0702 268.379 78.4451C267.695 78.82 266.766 78.1171 266.288 76.8831C265.81 75.6491 265.978 74.3057 266.649 73.9308C267.321 73.5559 268.263 74.1808 268.741 75.4929Z" fill="#263238"/>
<path d="M269.154 77.9609C269.154 77.9609 269.567 86.4896 268.302 91.4256C270.884 92.4722 273.672 89.8636 273.672 89.8636L269.154 77.9609Z" fill="#FF5652"/>
<path d="M268.87 65.1678C268.76 65.2775 268.625 65.343 268.483 65.3552C267.642 65.3821 266.819 65.6495 266.081 66.1355C265.343 66.6215 264.71 67.3123 264.235 68.1513C264.193 68.2474 264.135 68.3322 264.065 68.4006C263.995 68.469 263.914 68.5197 263.827 68.5496C263.741 68.5795 263.65 68.5881 263.561 68.5747C263.471 68.5613 263.385 68.5264 263.307 68.4719C263.229 68.4174 263.161 68.3444 263.107 68.2574C263.053 68.1704 263.014 68.0711 262.992 67.9654C262.97 67.8597 262.966 67.7498 262.98 67.6422C262.994 67.5346 263.026 67.4315 263.073 67.339C263.658 66.2648 264.448 65.3763 265.376 64.7483C266.303 64.1204 267.342 63.7714 268.405 63.7307C268.546 63.7213 268.686 63.766 268.805 63.8585C268.924 63.951 269.016 64.0865 269.067 64.2457C269.119 64.405 269.127 64.5799 269.092 64.7455C269.057 64.911 268.979 65.0588 268.87 65.1678V65.1678Z" fill="#263238"/>
<path d="M306.761 73.556C310.75 90.2697 315.204 103.235 320.639 110.639C320.639 110.639 320.742 123.775 302.242 130.023C281.896 136.896 289.694 121.089 289.694 121.089C300.022 114.138 299.041 103.641 291.269 99.6419L306.761 73.556Z" fill="#FF8B7B"/>
<path d="M324.951 107.436C324.59 101.329 324.112 94.3622 321.001 94.1748C317.567 93.9873 297.685 104.734 293.438 112.31C289.19 119.886 297.492 127.305 297.492 127.305L324.951 107.436Z" fill="#263238"/>
<path d="M284.259 202.017L267.088 201.33L267.398 218.731C267.398 218.731 282.374 216.856 283.032 212.092L284.259 202.017Z" fill="#FF8B7B"/>
<path d="M258.012 209.874L256.205 218.778L267.398 218.747L267.088 201.346L258.012 209.874Z" fill="#FF8B7B"/>
<path d="M353.173 129.711L352.812 134.178C352.695 135.615 352.54 137.021 352.385 138.443C352.089 141.27 351.714 144.097 351.314 146.909C350.539 152.548 349.532 158.155 348.37 163.794C347.189 169.541 345.759 175.209 344.084 180.774C343.194 183.632 342.264 186.491 341.154 189.396C340.035 192.444 338.74 195.393 337.281 198.222C336.932 198.956 336.493 199.784 336.067 200.471C335.641 201.158 335.228 202.033 334.776 202.751C334.324 203.47 333.847 204.313 333.253 205.048L332.414 206.203C332.113 206.63 331.794 207.037 331.458 207.422C328.871 210.488 325.838 212.95 322.512 214.685C317.409 217.334 311.994 218.994 306.464 219.606C303.947 219.965 301.455 220.106 299.015 220.184C296.575 220.262 294.135 220.184 291.734 220.027C289.333 219.871 286.957 219.621 284.595 219.278C282.232 218.934 279.934 218.481 277.43 217.872L277.843 201.549C286.086 199.805 294.234 197.457 302.243 194.519C304.024 193.819 305.774 193.005 307.484 192.083C308.941 191.339 310.333 190.423 311.641 189.349C312.402 188.795 313.047 188.036 313.526 187.131L313.901 186.413C314.074 186.106 314.234 185.788 314.378 185.46C314.562 185.101 314.73 184.731 314.882 184.351C315.05 183.945 315.23 183.57 315.398 183.117C316.915 179.11 318.162 174.963 319.129 170.714C320.188 166.122 321.182 161.342 321.982 156.39C322.783 151.439 323.557 146.44 324.267 141.395L325.249 133.803L326.139 126.415L353.173 129.711Z" fill="#087197"/>
<path opacity="0.2" d="M353.173 129.711L352.812 134.178C352.695 135.615 352.54 137.021 352.385 138.443C352.089 141.27 351.714 144.097 351.314 146.909C350.539 152.548 349.532 158.155 348.37 163.794C347.189 169.541 345.759 175.209 344.084 180.774C343.194 183.632 342.264 186.491 341.154 189.396C340.035 192.444 338.74 195.393 337.281 198.222C336.932 198.956 336.493 199.784 336.067 200.471C335.641 201.158 335.228 202.033 334.776 202.751C334.324 203.47 333.847 204.313 333.253 205.048L332.414 206.203C332.113 206.63 331.794 207.037 331.458 207.422C328.871 210.488 325.838 212.95 322.512 214.685C317.409 217.334 311.994 218.994 306.464 219.606C303.947 219.965 301.455 220.106 299.015 220.184C296.575 220.262 294.135 220.184 291.734 220.027C289.333 219.871 286.957 219.621 284.595 219.278C282.232 218.934 279.934 218.481 277.43 217.872L277.843 201.549C286.086 199.805 294.234 197.457 302.243 194.519C304.024 193.819 305.774 193.005 307.484 192.083C308.941 191.339 310.333 190.423 311.641 189.349C312.402 188.795 313.047 188.036 313.526 187.131L313.901 186.413C314.074 186.106 314.234 185.788 314.378 185.46C314.562 185.101 314.73 184.731 314.882 184.351C315.05 183.945 315.23 183.57 315.398 183.117C316.915 179.11 318.162 174.963 319.129 170.714C320.188 166.122 321.182 161.342 321.982 156.39C322.783 151.439 323.557 146.44 324.267 141.395L325.249 133.803L326.139 126.415L353.173 129.711Z" fill="black"/>
<path d="M276.939 150.47C283.34 183.864 286.943 217.953 287.693 252.221H363.281C363.694 240.928 362.119 177.244 354.515 131.242C353.84 127.075 352.484 123.114 350.526 119.59C348.568 116.067 346.047 113.052 343.113 110.724C340.178 108.396 336.888 106.8 333.437 106.032C329.986 105.264 326.442 105.338 323.015 106.249L322.653 106.359C313.216 108.952 299.674 113.138 291.669 116.809L291.347 116.965C285.993 119.483 281.58 124.271 278.929 130.436C276.278 136.6 275.571 143.721 276.939 150.47V150.47Z" fill="#087197"/>
<path opacity="0.2" d="M281.857 179.68C282.451 184.07 283.058 188.724 283.613 193.598C289.797 185.788 291.759 161.857 291.759 161.857L281.857 179.68Z" fill="black"/>
<path d="M219.063 203.158L201.905 201.221L201.337 218.606C204.173 219.553 207.169 219.543 210 218.576C212.831 217.61 215.389 215.724 217.398 213.123L219.063 203.158Z" fill="#FF8B7B"/>
<path d="M193.746 206.344L188.247 218.294L201.389 218.606L201.957 201.221L193.746 206.344Z" fill="#FF8B7B"/>
<path d="M305.302 142.457C304.114 145.191 303.056 147.612 301.868 150.111C300.68 152.61 299.544 155.047 298.318 157.468C295.89 162.342 293.373 167.121 290.714 171.854C285.374 181.547 279.459 190.756 273.014 199.409C269.563 204.067 265.811 208.386 261.795 212.327C261.292 212.842 260.698 213.342 260.143 213.889C259.587 214.435 259.097 214.873 258.271 215.451C257.444 216.029 256.747 216.607 255.998 217.106C255.25 217.606 254.475 218.059 253.713 218.465C250.866 219.961 247.885 221.057 244.831 221.73C239.489 222.82 234.045 222.967 228.668 222.167C226.15 221.818 223.65 221.297 221.18 220.605C219.949 220.262 218.736 219.871 217.539 219.434C216.248 218.996 215.203 218.512 213.821 217.872L215.951 201.752C224.059 200.424 232.825 198.721 238.867 195.41C240.208 194.743 241.471 193.866 242.624 192.801C243.088 192.415 243.52 191.976 243.915 191.489C244.005 191.349 244.405 190.927 244.702 190.583C244.999 190.239 245.348 189.911 245.67 189.505C248.434 186.192 251.021 182.671 253.416 178.962C258.614 170.849 263.47 162.424 267.966 153.719C270.29 149.299 272.549 144.8 274.808 140.286L278.139 133.507L281.354 126.837L305.302 142.457Z" fill="#087197"/>
<path d="M284.556 468.5H270.432L263.319 428.902H277.455L284.556 468.5Z" fill="#FF8B7B"/>
<g opacity="0.2">
<path opacity="0.2" d="M277.468 428.918H263.319L267.269 450.849L281.135 449.333L277.468 428.918Z" fill="black"/>
</g>
<path d="M302.23 53.4682C307.394 69.2759 310.983 78.2264 307.574 89.7073C302.41 106.968 284.091 108.717 275.183 95.065C267.179 82.7719 260.181 58.9822 270.29 45.908C272.504 43.0095 275.293 40.8445 278.394 39.6187C281.494 38.3929 284.802 38.1472 288.003 38.9049C291.204 39.6626 294.192 41.3985 296.682 43.9476C299.172 46.4967 301.082 49.7741 302.23 53.4682V53.4682Z" fill="#FF8B7B"/>
<path d="M277.416 77.1486C275.299 80.5851 273.672 83.1936 273.672 83.1936C273.672 83.1936 269.322 70.1195 270.987 64.1213C268.87 59.0447 264.597 66.5268 262.983 56.6391C261.369 46.7515 268.353 36.1297 270.987 33.9272C271.259 35.0794 271.38 36.2756 271.349 37.4731C278.465 30.4854 287.51 27.0294 296.652 27.8041C295.888 29.1791 295.402 30.7522 295.232 32.3965C295.232 32.3965 310.556 35.5205 314.042 46.0174C312.809 45.3054 311.508 44.7808 310.169 44.4553C312.978 49.3286 314.091 55.3429 313.267 61.2003C312.156 69.7423 311.577 78.3735 311.538 87.0206C311.68 91.4568 301.623 99.9386 295.49 90.8789C289.358 81.8191 277.416 77.1486 277.416 77.1486Z" fill="#263238"/>
<path d="M283.807 73.7435C284.607 77.4255 284.38 81.3238 283.162 84.8339C281.522 89.52 278.153 88.3953 276.487 84.3028C274.977 80.632 274.009 73.8216 276.681 70.5569C279.353 67.2923 282.8 69.3229 283.807 73.7435Z" fill="#FF8B7B"/>
<path d="M310.35 252.158C310.35 252.158 244.716 280.962 242.792 319.06C239.229 389.242 262.945 444.804 262.945 444.804L284.685 441.992C284.685 441.992 280.812 419.405 277.933 355.83C274.305 275.933 386.378 357.705 363.294 252.158H310.35Z" fill="#087197"/>
<path opacity="0.5" d="M310.35 252.158C310.35 252.158 244.716 280.962 242.792 319.06C239.229 389.242 262.945 444.804 262.945 444.804L284.685 441.992C284.685 441.992 280.812 419.405 277.933 355.83C274.305 275.933 386.378 357.705 363.294 252.158H310.35Z" fill="white"/>
<path d="M256.928 435.119C256.825 435.119 260.388 446.803 260.388 446.803L287.499 443.585L286.144 432.963L256.928 435.119Z" fill="#087197"/>
<path d="M223.504 470.452H209.368L205.236 430.839H219.373L223.504 470.452Z" fill="#FF8B7B"/>
<path opacity="0.2" d="M205.249 430.855L207.495 452.426L221.516 451.27L219.386 430.855H205.249Z" fill="black"/>
<path d="M287.693 252.158C287.693 252.158 180.152 263.702 181.314 329.057C182.515 397.037 203.506 442.882 203.506 442.882H224.498C224.498 442.882 220.522 407.612 221.232 340.694C221.438 320.653 254.927 314.03 287.615 311.687C315.863 309.657 342.302 290.178 353.276 258.578L355.535 252.158H287.693Z" fill="#087197"/>
<path opacity="0.5" d="M287.693 252.158C287.693 252.158 180.152 263.702 181.314 329.057C182.515 397.037 203.506 442.882 203.506 442.882H224.498C224.498 442.882 220.522 407.612 221.232 340.694C221.438 320.653 254.927 314.03 287.615 311.687C315.863 309.657 342.302 290.178 353.276 258.578L355.535 252.158H287.693Z" fill="white"/>
<path d="M198.588 436.056C198.497 436.056 202.189 447.803 202.189 447.803L227.545 445.6L226.06 434.978L198.588 436.056Z" fill="#087197"/>
<path d="M315.927 178.712L302.281 242.333C298.792 258.633 297.031 275.403 297.04 292.24V321.809C297.04 329.276 301.584 335.336 307.2 335.336H377.146C382.762 335.336 387.307 329.276 387.307 321.809V292.24C387.302 275.402 389.068 258.632 392.561 242.333L404.606 186.1C406.465 177.462 401.585 168.918 394.833 168.918H325.687C323.392 169.005 321.186 170.016 319.419 171.789C317.651 173.563 316.422 175.999 315.927 178.712Z" fill="#263238"/>
<path d="M228.926 304.533L231.211 320.31C232.425 328.604 238.454 335.337 244.689 335.337H322.446C328.682 335.337 332.774 328.604 331.561 320.31L329.276 304.533C327.894 295.083 321.039 287.429 313.939 287.429H239.344C232.192 287.429 227.557 295.083 228.926 304.533Z" fill="#263238"/>
<path d="M329.935 351.175H289.203L285.227 335.336H333.911L329.935 351.175Z" fill="#087197"/>
<path d="M316.844 351.175H302.294V468.968H316.844V351.175Z" fill="#087197"/>
<path opacity="0.7" d="M316.844 468.968H302.294V354.003L316.844 355.799V468.968Z" fill="white"/>
<path opacity="0.7" d="M313.294 468.968H309.821V354.924L313.294 355.362V468.968Z" fill="white"/>
<path d="M343.026 487.181H276.1C275.71 487.177 275.33 487.024 275.016 486.745C274.702 486.465 274.468 486.073 274.348 485.624C274.228 485.174 274.228 484.691 274.348 484.241C274.467 483.792 274.701 483.4 275.015 483.12L285.628 473.748C290.729 469.227 296.887 466.787 303.211 466.781H315.927C322.247 466.789 328.4 469.229 333.498 473.748L344.123 483.12C344.438 483.401 344.672 483.794 344.792 484.245C344.911 484.696 344.91 485.181 344.788 485.631C344.667 486.081 344.431 486.473 344.114 486.751C343.798 487.03 343.417 487.18 343.026 487.181Z" fill="#087197"/>
<path d="M269.645 464.844H285.524C285.8 464.856 286.066 464.975 286.282 465.183C286.498 465.391 286.653 465.678 286.725 466L289.513 481.215C289.58 481.584 289.576 481.967 289.503 482.335C289.429 482.702 289.287 483.045 289.089 483.336C288.89 483.628 288.639 483.862 288.354 484.019C288.07 484.176 287.76 484.254 287.448 484.245C281.909 484.136 279.211 483.745 272.227 483.745C267.928 483.745 262.415 484.276 256.489 484.276C250.564 484.276 249.776 477.184 252.203 476.544C263.099 473.654 263.822 469.687 267.347 465.891C267.979 465.209 268.798 464.836 269.645 464.844Z" fill="#263238"/>
<path d="M209.264 464.829H224.756C225.036 464.825 225.308 464.937 225.527 465.148C225.745 465.359 225.897 465.654 225.957 465.985L228.771 481.183C228.853 481.556 228.863 481.946 228.799 482.323C228.735 482.701 228.599 483.055 228.403 483.358C228.206 483.661 227.954 483.904 227.666 484.069C227.378 484.234 227.063 484.316 226.744 484.307C221.18 484.198 213.124 483.823 206.088 483.839C197.903 483.839 196.341 484.385 186.723 484.401C180.914 484.401 179.3 477.325 181.727 476.591C192.778 473.654 196.315 473.326 205.856 466.188C206.863 465.354 208.045 464.883 209.264 464.829Z" fill="#263238"/>
<g filter="url(#filter0_d_138_253)">
<path d="M332.313 35.4722C332.313 43.6482 313.658 50.2762 290.646 50.2762C267.634 50.2762 248.979 43.6482 248.979 35.4722C248.979 27.2961 267.634 20.6681 290.646 20.6681C313.658 20.6681 332.313 27.2961 332.313 35.4722ZM257.431 35.4722C257.431 41.9899 272.302 47.2736 290.646 47.2736C308.991 47.2736 323.862 41.9899 323.862 35.4722C323.862 28.9544 308.991 23.6707 290.646 23.6707C272.302 23.6707 257.431 28.9544 257.431 35.4722Z" fill="#FFD700"/>
</g>
<path d="M94.1175 187.697C94.5531 189.833 94.3744 191.935 93.7362 193.606C93.0978 195.278 92.0028 196.512 90.6075 196.929C89.2121 197.345 87.7682 196.869 86.5605 195.749C85.353 194.628 84.3867 192.868 83.9511 190.732C83.5155 188.596 83.6942 186.494 84.3324 184.823C84.9708 183.151 86.0658 181.917 87.4611 181.5C88.8565 181.084 90.3004 181.56 91.5081 182.681C92.7156 183.801 93.6819 185.561 94.1175 187.697Z" fill="#087197" stroke="#087197" stroke-width="0.112168"/>
<g filter="url(#filter1_d_138_253)">
<path d="M87.4893 189.912C87.4811 189.767 87.424 189.661 87.318 189.593C87.2119 189.524 87.0243 189.457 86.7552 189.395C86.4859 189.33 86.2719 189.263 86.113 189.192C85.6798 189 85.4523 188.711 85.4304 188.325C85.4191 188.125 85.4649 187.942 85.5678 187.777C85.6723 187.61 85.8272 187.473 86.0322 187.367C86.239 187.261 86.4737 187.198 86.7363 187.176C87.0006 187.154 87.2389 187.182 87.4511 187.262C87.6632 187.34 87.831 187.462 87.9544 187.627C88.0796 187.792 88.1485 187.986 88.1611 188.208L87.3987 188.272C87.389 188.102 87.3282 187.975 87.2161 187.89C87.104 187.804 86.9513 187.769 86.7582 187.785C86.5718 187.801 86.4292 187.853 86.3304 187.941C86.2315 188.028 86.1857 188.136 86.193 188.265C86.1999 188.385 86.2658 188.481 86.3907 188.553C86.5173 188.624 86.7004 188.685 86.94 188.737C87.3811 188.832 87.7063 188.968 87.9156 189.145C88.1248 189.322 88.2376 189.554 88.254 189.843C88.2722 190.164 88.1654 190.426 87.9335 190.629C87.7016 190.831 87.3806 190.949 86.9706 190.983C86.6859 191.007 86.4237 190.977 86.184 190.893C85.9443 190.807 85.7574 190.678 85.6233 190.507C85.491 190.335 85.4181 190.13 85.4045 189.891L86.1695 189.827C86.1927 190.236 86.4483 190.42 86.9363 190.38C87.1176 190.365 87.257 190.316 87.3545 190.235C87.4519 190.152 87.4968 190.044 87.4893 189.912ZM91.7292 190.065C91.6013 190.242 91.4146 190.386 91.169 190.498C90.9234 190.609 90.6481 190.677 90.3431 190.703C90.0229 190.729 89.7376 190.683 89.4875 190.564C89.2389 190.443 89.0409 190.255 88.8936 189.999C88.748 189.744 88.6633 189.436 88.6394 189.077L88.6251 188.825C88.6041 188.455 88.6478 188.129 88.7561 187.849C88.866 187.567 89.0339 187.345 89.2596 187.183C89.4869 187.019 89.7581 186.924 90.0733 186.898C90.5121 186.862 90.8612 186.938 91.1205 187.128C91.3797 187.316 91.5436 187.609 91.6121 188.006L90.87 188.067C90.8241 187.858 90.7398 187.709 90.6173 187.62C90.4965 187.531 90.3345 187.495 90.1312 187.512C89.8719 187.534 89.6801 187.648 89.5556 187.854C89.4312 188.061 89.3791 188.357 89.3993 188.742L89.4127 188.979C89.4348 189.368 89.5252 189.655 89.6839 189.842C89.8426 190.028 90.0642 190.109 90.3489 190.086C90.6352 190.062 90.8359 189.984 90.9509 189.851L90.9146 189.212L90.2208 189.27L90.1888 188.707L91.6451 188.586L91.7292 190.065Z" fill="#20DF7F"/>
</g>
<path d="M148.484 148.794C148.803 150.356 148.672 151.893 148.205 153.115C147.739 154.337 146.938 155.24 145.918 155.544C144.897 155.849 143.842 155.5 142.959 154.681C142.076 153.862 141.369 152.575 141.051 151.013C140.732 149.452 140.863 147.915 141.33 146.693C141.796 145.47 142.597 144.568 143.617 144.263C144.637 143.959 145.693 144.307 146.576 145.126C147.459 145.945 148.166 147.232 148.484 148.794Z" fill="#087197" stroke="#087197" stroke-width="0.0820131"/>
<g filter="url(#filter2_d_138_253)">
<path d="M143.657 150.757C143.651 150.651 143.609 150.574 143.532 150.524C143.454 150.473 143.317 150.425 143.12 150.379C142.923 150.332 142.767 150.282 142.651 150.231C142.334 150.09 142.168 149.879 142.152 149.597C142.143 149.451 142.177 149.317 142.252 149.196C142.329 149.074 142.442 148.974 142.592 148.896C142.743 148.819 142.915 148.772 143.107 148.756C143.3 148.74 143.474 148.761 143.629 148.82C143.784 148.876 143.907 148.965 143.997 149.086C144.089 149.207 144.139 149.349 144.148 149.511L143.591 149.558C143.584 149.434 143.539 149.341 143.457 149.279C143.375 149.216 143.264 149.19 143.123 149.202C142.986 149.213 142.882 149.251 142.81 149.316C142.737 149.379 142.704 149.458 142.709 149.553C142.714 149.641 142.762 149.711 142.854 149.763C142.946 149.815 143.08 149.86 143.255 149.898C143.578 149.967 143.816 150.067 143.969 150.196C144.122 150.325 144.204 150.496 144.216 150.707C144.23 150.941 144.151 151.133 143.982 151.282C143.812 151.429 143.578 151.515 143.278 151.54C143.07 151.558 142.878 151.536 142.703 151.474C142.527 151.411 142.391 151.317 142.293 151.192C142.196 151.067 142.143 150.917 142.133 150.742L142.692 150.695C142.709 150.994 142.896 151.129 143.253 151.099C143.385 151.088 143.487 151.053 143.558 150.993C143.63 150.932 143.663 150.854 143.657 150.757ZM146.757 150.869C146.664 150.998 146.527 151.104 146.348 151.186C146.168 151.267 145.967 151.317 145.744 151.335C145.51 151.355 145.301 151.321 145.118 151.234C144.936 151.146 144.792 151.008 144.684 150.821C144.577 150.634 144.515 150.409 144.498 150.146L144.488 149.962C144.472 149.691 144.504 149.454 144.583 149.249C144.664 149.043 144.786 148.88 144.951 148.762C145.118 148.642 145.316 148.573 145.546 148.553C145.867 148.527 146.122 148.583 146.312 148.722C146.502 148.859 146.621 149.073 146.672 149.363L146.129 149.408C146.095 149.255 146.034 149.146 145.944 149.081C145.856 149.017 145.737 148.99 145.589 149.003C145.399 149.018 145.259 149.102 145.168 149.253C145.077 149.404 145.039 149.62 145.054 149.902L145.063 150.075C145.08 150.359 145.146 150.569 145.262 150.706C145.378 150.842 145.54 150.901 145.748 150.884C145.957 150.867 146.104 150.81 146.188 150.713L146.162 150.246L145.654 150.288L145.631 149.876L146.696 149.788L146.757 150.869Z" fill="#20DF7F"/>
</g>
<defs>
<filter id="filter0_d_138_253" x="236.512" y="10.1692" width="109.581" height="55.8554" filterUnits="userSpaceOnUse" color-interpolation-filters="sRGB">
<feFlood flood-opacity="0" result="BackgroundImageFix"/>
<feColorMatrix in="SourceAlpha" type="matrix" values="0 0 0 0 0 0 0 0 0 0 0 0 0 0 0 0 0 0 127 0" result="hardAlpha"/>
<feOffset dx="0.65618" dy="2.62472"/>
<feGaussianBlur stdDeviation="6.5618"/>
<feComposite in2="hardAlpha" operator="out"/>
<feColorMatrix type="matrix" values="0 0 0 0 1 0 0 0 0 0.843137 0 0 0 0 0 0 0 0 1 0"/>
<feBlend mode="normal" in2="BackgroundImageFix" result="effect1_dropShadow_138_253"/>
<feBlend mode="normal" in="SourceGraphic" in2="effect1_dropShadow_138_253" result="shape"/>
</filter>
<filter id="filter1_d_138_253" x="85.1122" y="186.776" width="7.08179" height="4.91217" filterUnits="userSpaceOnUse" color-interpolation-filters="sRGB">
<feFlood flood-opacity="0" result="BackgroundImageFix"/>
<feColorMatrix in="SourceAlpha" type="matrix" values="0 0 0 0 0 0 0 0 0 0 0 0 0 0 0 0 0 0 127 0" result="hardAlpha"/>
<feOffset dx="0.14508" dy="0.290161"/>
<feGaussianBlur stdDeviation="0.14508"/>
<feComposite in2="hardAlpha" operator="out"/>
<feColorMatrix type="matrix" values="0 0 0 0 0.133333 0 0 0 0 0.286275 0 0 0 0 0.341176 0 0 0 1 0"/>
<feBlend mode="normal" in2="BackgroundImageFix" result="effect1_dropShadow_138_253"/>
<feBlend mode="normal" in="SourceGraphic" in2="effect1_dropShadow_138_253" result="shape"/>
</filter>
<filter id="filter2_d_138_253" x="141.919" y="148.464" width="5.17822" height="3.59161" filterUnits="userSpaceOnUse" color-interpolation-filters="sRGB">
<feFlood flood-opacity="0" result="BackgroundImageFix"/>
<feColorMatrix in="SourceAlpha" type="matrix" values="0 0 0 0 0 0 0 0 0 0 0 0 0 0 0 0 0 0 127 0" result="hardAlpha"/>
<feOffset dx="0.106078" dy="0.212155"/>
<feGaussianBlur stdDeviation="0.106078"/>
<feComposite in2="hardAlpha" operator="out"/>
<feColorMatrix type="matrix" values="0 0 0 0 0.133333 0 0 0 0 0.286275 0 0 0 0 0.341176 0 0 0 1 0"/>
<feBlend mode="normal" in2="BackgroundImageFix" result="effect1_dropShadow_138_253"/>
<feBlend mode="normal" in="SourceGraphic" in2="effect1_dropShadow_138_253" result="shape"/>
</filter>
</defs>
</svg>
